<svg width="151" height="43" viewBox="0 0 151 43" fill="none" xmlns="http://www.w3.org/2000/svg">
<path fill-rule="evenodd" clip-rule="evenodd" d="M10.9569 25.3684L-2.53465e-05 14.4114L0.715088 13.6963L11.672 24.6532L10.9569 25.3684Z" fill="#219653"/>
<path fill-rule="evenodd" clip-rule="evenodd" d="M35.6107 0.715054L10.9575 25.3682L10.2424 24.6531L34.8956 -5.9557e-05L35.6107 0.715054Z" fill="#219653"/>
<path fill-rule="evenodd" clip-rule="evenodd" d="M10.9569 28.7924L-2.53465e-05 17.8355L0.715088 17.1204L11.672 28.0773L10.9569 28.7924Z" fill="#219653"/>
<path fill-rule="evenodd" clip-rule="evenodd" d="M35.6097 4.13913L10.9566 28.7923L10.2415 28.0771L34.8946 3.42401L35.6097 4.13913Z" fill="#219653"/>
<path fill-rule="evenodd" clip-rule="evenodd" d="M10.9569 32.2163L-2.53465e-05 21.2593L0.715088 20.5442L11.672 31.5011L10.9569 32.2163Z" fill="#219653"/>
<path fill-rule="evenodd" clip-rule="evenodd" d="M35.6097 7.56344L10.9566 32.2166L10.2415 31.5015L34.8946 6.84833L35.6097 7.56344Z" fill="#219653"/>
<path fill-rule="evenodd" clip-rule="evenodd" d="M10.9569 35.6406L-2.53465e-05 24.6836L0.715088 23.9685L11.672 34.9255L10.9569 35.6406Z" fill="#219653"/>
<path fill-rule="evenodd" clip-rule="evenodd" d="M35.6097 10.9873L10.9566 35.6404L10.2415 34.9253L34.8946 10.2722L35.6097 10.9873Z" fill="#219653"/>
<path fill-rule="evenodd" clip-rule="evenodd" d="M10.9569 39.0646L-2.53465e-05 28.1077L0.715088 27.3926L11.672 38.3495L10.9569 39.0646Z" fill="#219653"/>
<path fill-rule="evenodd" clip-rule="evenodd" d="M35.6097 14.4113L10.9566 39.0645L10.2415 38.3494L34.8946 13.6962L35.6097 14.4113Z" fill="#219653"/>
<path fill-rule="evenodd" clip-rule="evenodd" d="M10.9569 42.4133L-2.53465e-05 31.4563L0.715088 30.7412L11.672 41.6982L10.9569 42.4133Z" fill="#219653"/>
<path fill-rule="evenodd" clip-rule="evenodd" d="M35.6097 17.7602L10.9566 42.4134L10.2415 41.6982L34.8946 17.0451L35.6097 17.7602Z" fill="#219653"/>
<path d="M68.6606 18.3076L66.1526 25.9955L63.6446 18.3076H61.0353L58.5274 25.9955L56.0194 18.3076H52.8528L57.2354 30.2353H59.6927L62.3273 22.0877L65.0886 30.2353H67.5713L71.8272 18.3076H68.6606Z" fill="#111111"/>
<path d="M84.6651 24.1566C84.6651 20.4276 82.0051 18.0522 78.6105 18.0522C75.2412 18.0522 72.4039 20.4531 72.4039 24.2587C72.4039 27.9877 75.0892 30.4908 78.6359 30.4908C80.7892 30.4908 82.8665 29.5713 83.9558 27.8345L82.0051 26.3276C81.2958 27.2981 80.0798 27.8089 78.7878 27.8089C77.0399 27.8089 75.7732 26.9661 75.4439 25.3059H84.5891C84.6398 24.8717 84.6651 24.4886 84.6651 24.1566ZM75.4439 23.2371C75.7986 21.4237 77.0652 20.6574 78.6612 20.6574C80.3078 20.6574 81.5491 21.6024 81.7265 23.2371H75.4439Z" fill="#111111"/>
<path d="M92.5322 30.4652C94.5842 30.4652 96.2561 29.5457 97.3455 28.1665L95.2428 26.5063C94.6348 27.247 93.6215 27.7068 92.5829 27.7068C90.5309 27.7068 89.0616 26.2509 89.0616 24.2587C89.0616 22.241 90.5309 20.8107 92.5829 20.8107C93.6215 20.8107 94.6348 21.2704 95.2428 22.0111L97.3455 20.3509C96.2561 18.9462 94.5842 18.0522 92.5322 18.0522C89.1122 18.0522 86.0976 20.4786 86.0976 24.2587C86.0976 28.0388 89.1122 30.4652 92.5322 30.4652Z" fill="#111111"/>
<path d="M105.95 18.0522C104.76 18.0522 102.86 18.6908 102.277 20.1211V11.9224H99.3385V30.2353H102.277V24.0033C102.277 21.7046 103.949 20.9639 105.292 20.9639C106.609 20.9639 107.749 21.9345 107.749 23.8245V30.2353H110.688V23.5436C110.688 20.07 108.99 18.0522 105.95 18.0522Z" fill="#111111"/>
<path d="M125.053 24.1566C125.053 20.4276 122.393 18.0522 118.999 18.0522C115.63 18.0522 112.792 20.4531 112.792 24.2587C112.792 27.9877 115.478 30.4908 119.024 30.4908C121.177 30.4908 123.255 29.5713 124.344 27.8345L122.393 26.3276C121.684 27.2981 120.468 27.8089 119.176 27.8089C117.428 27.8089 116.162 26.9661 115.832 25.3059H124.977C125.028 24.8717 125.053 24.4886 125.053 24.1566ZM115.832 23.2371C116.187 21.4237 117.454 20.6574 119.05 20.6574C120.696 20.6574 121.937 21.6024 122.115 23.2371H115.832Z" fill="#111111"/>
<path d="M132.921 30.4652C134.972 30.4652 136.644 29.5457 137.734 28.1665L135.631 26.5063C135.023 27.247 134.01 27.7068 132.971 27.7068C130.919 27.7068 129.45 26.2509 129.45 24.2587C129.45 22.241 130.919 20.8107 132.971 20.8107C134.01 20.8107 135.023 21.2704 135.631 22.0111L137.734 20.3509C136.644 18.9462 134.972 18.0522 132.921 18.0522C129.501 18.0522 126.486 20.4786 126.486 24.2587C126.486 28.0388 129.501 30.4652 132.921 30.4652Z" fill="#111111"/>
<path d="M151 30.2353L145.072 23.518L149.885 18.3076H146.06L142.665 22.1133V11.9224H139.727V30.2353H142.665V24.8206L147.276 30.2353H151Z" fill="#111111"/>
</svg>
